<svg xmlns="http://www.w3.org/2000/svg" viewBox="0 0 100 100">
  <!-- Background Circle -->
  <circle cx="50" cy="50" r="48" fill="#8B5CF6"/>
  
  <!-- Book Shape -->
  <g transform="translate(25, 20)">
    <!-- Book Cover -->
    <rect x="0" y="0" width="50" height="60" rx="3" fill="#1F2937"/>
    <rect x="2" y="2" width="46" height="56" rx="2" fill="#374151"/>
    
    <!-- Book Pages -->
    <rect x="8" y="5" width="34" height="50" fill="#F9FAFB"/>
    <line x1="25" y1="5" x2="25" y2="55" stroke="#D1D5DB" stroke-width="1"/>
    
    <!-- Text Lines (representing text on pages) -->
    <line x1="12" y1="15" x2="21" y2="15" stroke="#6B7280" stroke-width="1.5" stroke-linecap="round"/>
    <line x1="12" y1="20" x2="21" y2="20" stroke="#6B7280" stroke-width="1.5" stroke-linecap="round"/>
    <line x1="12" y1="25" x2="21" y2="25" stroke="#6B7280" stroke-width="1.5" stroke-linecap="round"/>
    
    <line x1="29" y1="15" x2="38" y2="15" stroke="#6B7280" stroke-width="1.5" stroke-linecap="round"/>
    <line x1="29" y1="20" x2="38" y2="20" stroke="#6B7280" stroke-width="1.5" stroke-linecap="round"/>
    <line x1="29" y1="25" x2="38" y2="25" stroke="#6B7280" stroke-width="1.5" stroke-linecap="round"/>
    
    <!-- AI Sparkle Effect -->
    <g transform="translate(35, 35)">
      <!-- Star/Sparkle -->
      <path d="M 0,-6 L 1.5,-1.5 L 6,0 L 1.5,1.5 L 0,6 L -1.5,1.5 L -6,0 L -1.5,-1.5 Z" fill="#EC4899" opacity="0.9"/>
      <circle cx="0" cy="0" r="2" fill="#FFF" opacity="0.8"/>
    </g>
  </g>
  
  <!-- Border -->
  <circle cx="50" cy="50" r="48" fill="none" stroke="#A78BFA" stroke-width="2" opacity="0.5"/>
</svg>
